<svg version="1.2" baseProfile="tiny-ps" height="96" viewBox="0 0 25.399999 25.4" width="96" xmlns="http://www.w3.org/2000/svg"><title>Bruno Meilick</title><path d="m0 0h25.4v25.4h-25.4z" fill="#b7b4a7"/><path d="m8.3307177 19.079644h.067733c.6095988-.08467 1.3715973-.135466 1.9642633-.135466.931331 0 1.710263.135466 2.641595.135466 2.760127 0 4.944523-1.320797 4.944523-3.403593 0-2.015063-1.74413-2.743195-3.369727-2.963328v-.08467c1.422398-.287866 2.709328-1.100665 2.709328-2.6415951 0-1.7949298-1.574796-2.8447944-4.097858-2.8447944-.643466 0-1.608664.1185331-2.793995.1185331-.6095987 0-1.3715972-.0508-1.9981293-.1354664-.2370662-.033867-.4063992.1354664-.4063992.338666 0 .2201329.1523997.3217327.3217327.3894659l1.2361309.4571991v9.5842478l-1.2361309.457199c-.169333.06773-.3217327.169333-.3217327.389466 0 .186266.1354664.338666.338666.338666zm2.9125273-6.790253v-3.0818609c0-.9651981.643466-1.2191976 1.676397-1.2191976 1.676397 0 2.489195.8635983 2.489195 2.0150625 0 1.540931-1.066798 2.285996-2.743194 2.285996zm1.811863 5.875855c-1.253064 0-1.811863-.118533-1.811863-.948265v-4.097859h1.371598c2.201329 0 3.420526.880532 3.420526 2.658529 0 1.574796-1.320797 2.387595-2.980261 2.387595z" fill="#fff" stroke-width=".264583"/></svg>
